<svg xmlns="http://www.w3.org/2000/svg" xmlns:xlink="http://www.w3.org/1999/xlink" width="500" zoomAndPan="magnify" viewBox="0 0 375 374.999991" height="500" preserveAspectRatio="xMidYMid meet" version="1.0"><defs><g/><clipPath id="a9a67b4e44"><path d="M 141 73.097656 L 256.914062 73.097656 L 256.914062 131.597656 L 141 131.597656 Z M 141 73.097656 " clip-rule="nonzero"/></clipPath><clipPath id="a266fc5081"><path d="M 116.722656 73.523438 L 195.0625 73.523438 L 195.0625 131.597656 L 116.722656 131.597656 Z M 116.722656 73.523438 " clip-rule="nonzero"/></clipPath><clipPath id="b89fc69dd2"><path d="M 122 92 L 177 92 L 177 131.597656 L 122 131.597656 Z M 122 92 " clip-rule="nonzero"/></clipPath><clipPath id="1b02cfea3d"><path d="M 142 220.371094 L 256.753906 220.371094 L 256.753906 278 L 142 278 Z M 142 220.371094 " clip-rule="nonzero"/></clipPath><clipPath id="d6ebd4c05a"><path d="M 117.417969 220.371094 L 195.398438 220.371094 L 195.398438 278.078125 L 117.417969 278.078125 Z M 117.417969 220.371094 " clip-rule="nonzero"/></clipPath><clipPath id="bf515484f1"><path d="M 123 220.371094 L 177 220.371094 L 177 256 L 123 256 Z M 123 220.371094 " clip-rule="nonzero"/></clipPath></defs><rect x="-37.5" width="450" fill="#ffffff" y="-37.499999" height="449.999989" fill-opacity="1"/><rect x="-37.5" width="450" fill="#ffffff" y="-37.499999" height="449.999989" fill-opacity="1"/><g clip-path="url(#a9a67b4e44)"><path fill="#f40808" d="M 192.347656 213.851562 C 199.238281 202.390625 205.109375 189.894531 209.582031 176.949219 L 243.742188 176.949219 L 243.355469 177.941406 L 242.496094 180 L 222.097656 179.859375 L 240.644531 184.28125 L 240.347656 184.953125 L 238.769531 188.324219 L 237.144531 191.597656 L 235.480469 194.769531 L 233.78125 197.835938 L 233.628906 198.09375 L 213.992188 197.957031 L 231.246094 202.070312 L 230.277344 203.628906 L 228.480469 206.34375 L 226.660156 208.933594 L 224.820312 211.390625 L 224.359375 211.964844 L 205.039062 211.832031 L 221.257812 215.699219 L 221.089844 215.894531 L 219.203125 217.929688 L 217.3125 219.816406 L 215.414062 221.542969 L 213.515625 223.109375 L 211.621094 224.511719 L 209.730469 225.746094 L 207.851562 226.800781 L 205.980469 227.675781 L 204.128906 228.367188 L 202.296875 228.867188 L 200.484375 229.171875 L 192.347656 229.191406 Z M 192.347656 176.949219 L 192.347656 198.535156 C 196.183594 191.621094 199.644531 184.390625 202.660156 176.949219 Z M 192.347656 73.191406 L 238.554688 73.101562 L 240.21875 73.402344 L 241.808594 73.894531 L 243.328125 74.578125 L 244.769531 75.445312 L 246.136719 76.496094 L 247.425781 77.722656 L 248.640625 79.121094 L 249.773438 80.679688 L 250.363281 81.644531 L 233.46875 85.488281 L 252.15625 85.082031 L 252.695312 86.3125 L 253.507812 88.488281 L 254.234375 90.804688 L 254.875 93.261719 L 255.003906 93.851562 L 236.019531 98.171875 L 255.765625 97.742188 L 255.90625 98.558594 L 256.289062 101.390625 L 256.585938 104.339844 L 256.792969 107.402344 L 256.910156 110.570312 L 256.914062 110.984375 L 236.546875 113.335938 L 256.90625 115.351562 L 256.871094 117.207031 L 256.710938 120.667969 L 256.457031 124.214844 L 256.34375 125.4375 L 219.136719 125.4375 C 219.347656 110.507812 216.953125 97.636719 212.453125 87.382812 C 215.429688 98.140625 216.515625 110.972656 215.316406 125.4375 L 197.761719 125.4375 L 197.871094 124.328125 L 198.121094 120.78125 L 198.28125 117.324219 L 198.347656 113.953125 L 198.320312 110.683594 L 198.203125 107.515625 L 197.996094 104.453125 L 197.699219 101.503906 L 197.316406 98.671875 L 196.84375 95.957031 L 196.289062 93.375 L 195.644531 90.921875 L 194.917969 88.601562 L 194.105469 86.425781 L 193.214844 84.398438 L 192.347656 82.730469 Z M 192.347656 198.535156 C 186.105469 209.792969 178.875 220.195312 170.984375 229.230469 L 141.894531 229.289062 L 143.707031 228.980469 L 145.539062 228.480469 L 147.394531 227.789062 L 149.261719 226.914062 L 151.144531 225.859375 L 153.03125 224.625 L 154.929688 223.226562 L 156.824219 221.65625 L 158.722656 219.929688 L 160.613281 218.042969 L 162.5 216.007812 L 164.371094 213.828125 L 166.230469 211.503906 L 168.074219 209.046875 L 169.890625 206.457031 L 171.6875 203.738281 L 173.453125 200.902344 L 175.191406 197.949219 L 176.890625 194.882812 L 178.554688 191.710938 L 180.179688 188.4375 L 181.757812 185.066406 L 183.285156 181.605469 L 184.765625 178.054688 L 185.199219 176.949219 L 192.347656 176.949219 Z M 192.347656 229.191406 L 192.347656 213.851562 C 189.125 219.21875 185.675781 224.355469 182.039062 229.207031 Z M 179.964844 73.214844 L 192.347656 73.191406 L 192.347656 82.730469 L 192.238281 82.519531 L 191.183594 80.796875 L 190.050781 79.234375 L 188.835938 77.835938 L 187.546875 76.609375 L 186.179688 75.5625 L 184.738281 74.691406 L 183.21875 74.007812 L 181.628906 73.515625 L 179.964844 73.214844 " fill-opacity="1" fill-rule="evenodd"/></g><g clip-path="url(#a266fc5081)"><path fill="#f40808" d="M 182.0625 176.949219 C 169.960938 207.691406 151.808594 229.820312 136.789062 229.847656 C 123.804688 229.871094 116.539062 213.386719 116.667969 189.074219 C 117.640625 206.476562 123.621094 217.890625 133.558594 217.871094 C 145.636719 217.847656 160.109375 200.945312 170.308594 176.949219 Z M 134.867188 114.460938 C 146.601562 90.128906 161.925781 73.597656 174.90625 73.574219 C 189.777344 73.542969 197.148438 95.1875 194.488281 125.4375 L 182.699219 125.4375 C 183.976562 101.964844 177.75 85.550781 165.832031 85.574219 C 155.894531 85.589844 144.335938 97.039062 134.867188 114.460938 " fill-opacity="1" fill-rule="evenodd"/></g><g clip-path="url(#b89fc69dd2)"><path fill="#f40808" d="M 134.359375 125.4375 C 142.914062 105.453125 154.519531 91.996094 163.882812 92.898438 C 172.5 93.734375 176.984375 106.507812 176.394531 124.628906 C 176.109375 111.585938 172.375 102.679688 165.777344 102.042969 C 158.515625 101.339844 149.667969 110.839844 142.664062 125.4375 Z M 162.78125 179.078125 C 154.492188 196.453125 143.980469 207.777344 135.363281 206.941406 C 127.027344 206.136719 122.558594 194.148438 122.8125 176.949219 L 131.042969 176.949219 C 131.488281 189.476562 135.199219 197.96875 141.636719 198.589844 C 148.230469 199.226562 156.136719 191.449219 162.78125 179.078125 " fill-opacity="1" fill-rule="evenodd"/></g><g fill="#000000" fill-opacity="1"><g transform="translate(128.406235, 190.344136)"><g><path d="M 22.90625 0 C 22.226562 0 21.835938 -0.363281 21.734375 -1.09375 L 19.28125 -22.40625 C 19.28125 -22.632812 19.191406 -22.75 19.015625 -22.75 C 18.796875 -22.75 18.6875 -22.609375 18.6875 -22.328125 L 16.0625 -1.265625 C 16.007812 -0.867188 15.851562 -0.554688 15.59375 -0.328125 C 15.34375 -0.109375 15.050781 0 14.71875 0 L 1.6875 0 C 1.351562 0 1.085938 -0.109375 0.890625 -0.328125 C 0.691406 -0.554688 0.617188 -0.867188 0.671875 -1.265625 L 7.609375 -57.921875 C 7.660156 -58.304688 7.8125 -58.613281 8.0625 -58.84375 C 8.320312 -59.070312 8.625 -59.1875 8.96875 -59.1875 L 27.484375 -59.1875 C 31.984375 -59.1875 35.546875 -57.75 38.171875 -54.875 C 40.796875 -52 42.109375 -48.191406 42.109375 -43.453125 C 42.109375 -42.097656 42.050781 -41.054688 41.9375 -40.328125 C 41.539062 -37.222656 40.664062 -34.445312 39.3125 -32 C 37.957031 -29.550781 36.210938 -27.566406 34.078125 -26.046875 C 33.796875 -25.867188 33.707031 -25.671875 33.8125 -25.453125 L 37.453125 -1.4375 L 37.453125 -1.09375 C 37.453125 -0.757812 37.335938 -0.492188 37.109375 -0.296875 C 36.890625 -0.0976562 36.609375 0 36.265625 0 Z M 21.890625 -45.578125 C 21.609375 -45.578125 21.46875 -45.429688 21.46875 -45.140625 L 20.203125 -35.25 C 20.203125 -34.96875 20.34375 -34.828125 20.625 -34.828125 L 21.734375 -34.828125 C 23.078125 -34.828125 24.210938 -35.421875 25.140625 -36.609375 C 26.078125 -37.796875 26.546875 -39.429688 26.546875 -41.515625 C 26.546875 -42.804688 26.234375 -43.804688 25.609375 -44.515625 C 24.992188 -45.222656 24.148438 -45.578125 23.078125 -45.578125 Z M 21.890625 -45.578125 "/></g></g></g><g fill="#000000" fill-opacity="1"><g transform="translate(172.959229, 190.344136)"><g><path d="M 17.84375 0.671875 C 12.882812 0.671875 8.976562 -0.632812 6.125 -3.25 C 3.28125 -5.875 1.859375 -9.441406 1.859375 -13.953125 C 1.859375 -14.460938 1.914062 -15.335938 2.03125 -16.578125 L 5.234375 -42.703125 C 5.859375 -47.941406 8 -52.109375 11.65625 -55.203125 C 15.320312 -58.304688 19.863281 -59.859375 25.28125 -59.859375 C 30.1875 -59.859375 34.085938 -58.53125 36.984375 -55.875 C 39.890625 -53.226562 41.34375 -49.648438 41.34375 -45.140625 C 41.34375 -44.523438 41.285156 -43.65625 41.171875 -42.53125 L 40.84375 -39.734375 C 40.664062 -38.890625 40.1875 -38.46875 39.40625 -38.46875 L 26.46875 -38.46875 C 26.070312 -38.46875 25.773438 -38.578125 25.578125 -38.796875 C 25.378906 -39.023438 25.304688 -39.335938 25.359375 -39.734375 L 25.78125 -42.703125 C 25.894531 -43.765625 25.753906 -44.617188 25.359375 -45.265625 C 24.960938 -45.921875 24.398438 -46.25 23.671875 -46.25 C 22.878906 -46.25 22.203125 -45.921875 21.640625 -45.265625 C 21.078125 -44.617188 20.738281 -43.765625 20.625 -42.703125 L 17.421875 -16.484375 C 17.304688 -15.410156 17.445312 -14.550781 17.84375 -13.90625 C 18.238281 -13.257812 18.800781 -12.9375 19.53125 -12.9375 C 20.320312 -12.9375 20.984375 -13.257812 21.515625 -13.90625 C 22.054688 -14.550781 22.378906 -15.410156 22.484375 -16.484375 L 23.078125 -20.71875 C 23.078125 -21 22.9375 -21.140625 22.65625 -21.140625 L 21.984375 -21.140625 C 21.585938 -21.140625 21.289062 -21.25 21.09375 -21.46875 C 20.894531 -21.695312 20.828125 -22.007812 20.890625 -22.40625 L 22.0625 -32.125 C 22.125 -32.519531 22.28125 -32.828125 22.53125 -33.046875 C 22.78125 -33.273438 23.078125 -33.390625 23.421875 -33.390625 L 38.8125 -33.390625 C 39.207031 -33.390625 39.5 -33.273438 39.6875 -33.046875 C 39.882812 -32.828125 39.957031 -32.519531 39.90625 -32.125 L 37.96875 -16.578125 C 37.34375 -11.328125 35.179688 -7.140625 31.484375 -4.015625 C 27.796875 -0.890625 23.25 0.671875 17.84375 0.671875 Z M 17.84375 0.671875 "/></g></g></g><g fill="#000000" fill-opacity="1"><g transform="translate(216.582288, 190.344136)"><g><path d="M 22.90625 0 C 22.226562 0 21.835938 -0.363281 21.734375 -1.09375 L 19.28125 -22.40625 C 19.28125 -22.632812 19.191406 -22.75 19.015625 -22.75 C 18.796875 -22.75 18.6875 -22.609375 18.6875 -22.328125 L 16.0625 -1.265625 C 16.007812 -0.867188 15.851562 -0.554688 15.59375 -0.328125 C 15.34375 -0.109375 15.050781 0 14.71875 0 L 1.6875 0 C 1.351562 0 1.085938 -0.109375 0.890625 -0.328125 C 0.691406 -0.554688 0.617188 -0.867188 0.671875 -1.265625 L 7.609375 -57.921875 C 7.660156 -58.304688 7.8125 -58.613281 8.0625 -58.84375 C 8.320312 -59.070312 8.625 -59.1875 8.96875 -59.1875 L 27.484375 -59.1875 C 31.984375 -59.1875 35.546875 -57.75 38.171875 -54.875 C 40.796875 -52 42.109375 -48.191406 42.109375 -43.453125 C 42.109375 -42.097656 42.050781 -41.054688 41.9375 -40.328125 C 41.539062 -37.222656 40.664062 -34.445312 39.3125 -32 C 37.957031 -29.550781 36.210938 -27.566406 34.078125 -26.046875 C 33.796875 -25.867188 33.707031 -25.671875 33.8125 -25.453125 L 37.453125 -1.4375 L 37.453125 -1.09375 C 37.453125 -0.757812 37.335938 -0.492188 37.109375 -0.296875 C 36.890625 -0.0976562 36.609375 0 36.265625 0 Z M 21.890625 -45.578125 C 21.609375 -45.578125 21.46875 -45.429688 21.46875 -45.140625 L 20.203125 -35.25 C 20.203125 -34.96875 20.34375 -34.828125 20.625 -34.828125 L 21.734375 -34.828125 C 23.078125 -34.828125 24.210938 -35.421875 25.140625 -36.609375 C 26.078125 -37.796875 26.546875 -39.429688 26.546875 -41.515625 C 26.546875 -42.804688 26.234375 -43.804688 25.609375 -44.515625 C 24.992188 -45.222656 24.148438 -45.578125 23.078125 -45.578125 Z M 21.890625 -45.578125 "/></g></g></g><g clip-path="url(#1b02cfea3d)"><path fill="#f40808" d="M 192.699219 262.160156 C 199.550781 250.753906 205.386719 238.316406 209.839844 225.433594 L 243.816406 225.433594 L 243.429688 226.421875 L 242.578125 228.46875 L 222.285156 228.328125 L 240.734375 232.730469 L 240.4375 233.398438 L 238.867188 236.753906 L 237.253906 240.011719 L 235.597656 243.167969 L 233.90625 246.21875 L 233.753906 246.476562 L 214.226562 246.339844 L 231.386719 250.4375 L 230.421875 251.984375 L 228.636719 254.6875 L 226.824219 257.265625 L 224.996094 259.710938 L 224.539062 260.28125 L 205.320312 260.148438 L 221.449219 263.996094 L 221.28125 264.195312 L 219.40625 266.21875 L 217.527344 268.09375 L 215.640625 269.816406 L 213.753906 271.375 L 211.867188 272.769531 L 209.988281 273.996094 L 208.117188 275.046875 L 206.257812 275.917969 L 204.414062 276.605469 L 202.589844 277.105469 L 200.789062 277.410156 L 192.699219 277.425781 Z M 192.699219 225.433594 L 192.699219 246.914062 C 196.511719 240.035156 199.953125 232.835938 202.953125 225.433594 Z M 192.699219 122.164062 L 238.65625 122.078125 L 240.308594 122.375 L 241.894531 122.867188 L 243.402344 123.546875 L 244.835938 124.410156 L 246.195312 125.457031 L 247.480469 126.675781 L 248.6875 128.066406 L 249.816406 129.621094 L 250.402344 130.582031 L 233.597656 134.40625 L 252.183594 134 L 252.722656 135.226562 L 253.527344 137.390625 L 254.25 139.699219 L 254.890625 142.140625 L 255.015625 142.726562 L 236.132812 147.027344 L 255.773438 146.601562 L 255.914062 147.410156 L 256.296875 150.230469 L 256.589844 153.167969 L 256.796875 156.214844 L 256.914062 159.367188 L 256.917969 159.78125 L 236.660156 162.121094 L 256.910156 164.125 L 256.875 165.972656 L 256.714844 169.417969 L 256.464844 172.949219 L 256.347656 174.164062 L 219.34375 174.164062 C 219.550781 159.308594 217.167969 146.496094 212.691406 136.292969 C 215.65625 147 216.734375 159.769531 215.542969 174.164062 L 198.082031 174.164062 L 198.1875 173.0625 L 198.441406 169.53125 L 198.597656 166.089844 L 198.664062 162.734375 L 198.636719 159.480469 L 198.519531 156.328125 L 198.316406 153.28125 L 198.019531 150.34375 L 197.636719 147.523438 L 197.167969 144.824219 L 196.613281 142.253906 L 195.976562 139.8125 L 195.25 137.503906 L 194.445312 135.339844 L 193.558594 133.320312 L 192.699219 131.660156 Z M 192.699219 246.914062 C 186.488281 258.121094 179.296875 268.472656 171.445312 277.464844 L 142.511719 277.523438 L 144.316406 277.21875 L 146.136719 276.71875 L 147.980469 276.03125 L 149.839844 275.160156 L 151.710938 274.109375 L 153.589844 272.882812 L 155.476562 271.488281 L 157.363281 269.925781 L 159.25 268.207031 L 161.132812 266.332031 L 163.007812 264.304688 L 164.871094 262.136719 L 166.71875 259.824219 L 168.550781 257.378906 L 170.359375 254.800781 L 172.144531 252.097656 L 173.902344 249.273438 L 175.628906 246.332031 L 177.324219 243.28125 L 178.976562 240.125 L 180.589844 236.867188 L 182.160156 233.511719 L 183.683594 230.066406 L 185.152344 226.53125 L 185.585938 225.433594 L 192.699219 225.433594 Z M 192.699219 277.425781 L 192.699219 262.160156 C 189.488281 267.5 186.058594 272.617188 182.441406 277.445312 Z M 180.378906 122.191406 L 192.699219 122.164062 L 192.699219 131.660156 L 192.589844 131.449219 L 191.539062 129.734375 L 190.410156 128.179688 L 189.203125 126.789062 L 187.921875 125.570312 L 186.5625 124.523438 L 185.125 123.660156 L 183.617188 122.980469 L 182.035156 122.488281 L 180.378906 122.191406 " fill-opacity="1" fill-rule="evenodd"/></g><g clip-path="url(#d6ebd4c05a)"><path fill="#f40808" d="M 182.464844 225.433594 C 170.429688 256.03125 152.371094 278.050781 137.433594 278.082031 C 124.519531 278.105469 117.289062 261.695312 117.421875 237.5 C 118.386719 254.820312 124.339844 266.179688 134.222656 266.160156 C 146.234375 266.136719 160.628906 249.316406 170.777344 225.433594 Z M 135.523438 163.242188 C 147.195312 139.023438 162.433594 122.570312 175.347656 122.546875 C 190.140625 122.515625 197.472656 144.058594 194.824219 174.164062 L 183.097656 174.164062 C 184.371094 150.804688 178.175781 134.464844 166.320312 134.488281 C 156.4375 134.507812 144.941406 145.902344 135.523438 163.242188 " fill-opacity="1" fill-rule="evenodd"/></g><g clip-path="url(#bf515484f1)"><path fill="#f40808" d="M 135.015625 174.164062 C 143.527344 154.277344 155.070312 140.878906 164.382812 141.78125 C 172.953125 142.609375 177.414062 155.324219 176.828125 173.359375 C 176.542969 160.378906 172.828125 151.515625 166.269531 150.878906 C 159.046875 150.183594 150.242188 159.636719 143.277344 174.164062 Z M 163.285156 227.550781 C 155.042969 244.84375 144.585938 256.113281 136.019531 255.285156 C 127.722656 254.480469 123.28125 242.546875 123.535156 225.433594 L 131.722656 225.433594 C 132.164062 237.898438 135.855469 246.351562 142.253906 246.96875 C 148.816406 247.605469 156.679688 239.863281 163.285156 227.550781 " fill-opacity="1" fill-rule="evenodd"/></g><g fill="#000000" fill-opacity="1"><g transform="translate(177.085687, 216.6856)"><g><path d="M 17.9375 0 L 13.625 0 L 13.25 -4.78125 L 5.3125 -4.78125 L 2.5625 0 L -1.640625 0 L 10.6875 -20.71875 L 15.953125 -20.71875 Z M 12.984375 -8.21875 L 12.34375 -16.40625 L 12 -16.40625 L 7.28125 -8.21875 Z M 12.984375 -8.21875 "/></g></g></g><g fill="#000000" fill-opacity="1"><g transform="translate(196.41665, 216.6856)"><g><path d="M 8.953125 0.296875 C 6.097656 0.296875 4.148438 -0.378906 3.109375 -1.734375 C 2.078125 -3.085938 1.890625 -5.097656 2.546875 -7.765625 L 5.78125 -20.71875 L 9.796875 -20.71875 L 6.578125 -7.796875 C 6.203125 -6.285156 6.28125 -5.148438 6.8125 -4.390625 C 7.351562 -3.640625 8.367188 -3.265625 9.859375 -3.265625 C 12.796875 -3.265625 14.640625 -4.773438 15.390625 -7.796875 L 18.609375 -20.71875 L 22.625 -20.71875 L 19.390625 -7.765625 C 18.734375 -5.097656 17.539062 -3.085938 15.8125 -1.734375 C 14.09375 -0.378906 11.804688 0.296875 8.953125 0.296875 Z M 8.953125 0.296875 "/></g></g></g><g fill="#000000" fill-opacity="1"><g transform="translate(217.519721, 216.6856)"><g><path d="M 19.828125 -20.71875 L 18.96875 -17.28125 L 12.984375 -17.28125 L 8.671875 0 L 4.59375 0 L 8.90625 -17.28125 L 2.921875 -17.28125 L 3.78125 -20.71875 Z M 19.828125 -20.71875 "/></g></g></g><g fill="#000000" fill-opacity="1"><g transform="translate(233.83101, 216.6856)"><g><path d="M 9.265625 0.296875 C 7.367188 0.296875 5.789062 -0.0859375 4.53125 -0.859375 C 3.28125 -1.640625 2.441406 -2.820312 2.015625 -4.40625 C 1.585938 -6 1.671875 -7.984375 2.265625 -10.359375 C 2.847656 -12.734375 3.75 -14.71875 4.96875 -16.3125 C 6.1875 -17.90625 7.617188 -19.085938 9.265625 -19.859375 C 10.910156 -20.628906 12.6875 -21.015625 14.59375 -21.015625 C 16.488281 -21.015625 18.0625 -20.628906 19.3125 -19.859375 C 20.5625 -19.097656 21.394531 -17.914062 21.8125 -16.3125 C 22.238281 -14.71875 22.160156 -12.734375 21.578125 -10.359375 C 20.984375 -7.984375 20.078125 -6 18.859375 -4.40625 C 17.640625 -2.8125 16.210938 -1.628906 14.578125 -0.859375 C 12.941406 -0.0859375 11.171875 0.296875 9.265625 0.296875 Z M 10.15625 -3.265625 C 11.914062 -3.265625 13.398438 -3.828125 14.609375 -4.953125 C 15.816406 -6.078125 16.726562 -7.878906 17.34375 -10.359375 C 17.957031 -12.835938 17.941406 -14.644531 17.296875 -15.78125 C 16.660156 -16.914062 15.460938 -17.484375 13.703125 -17.484375 C 11.941406 -17.484375 10.453125 -16.914062 9.234375 -15.78125 C 8.015625 -14.644531 7.101562 -12.835938 6.5 -10.359375 C 5.875 -7.878906 5.882812 -6.078125 6.53125 -4.953125 C 7.1875 -3.828125 8.394531 -3.265625 10.15625 -3.265625 Z M 10.15625 -3.265625 "/></g></g></g><g fill="#000000" fill-opacity="1"><g transform="translate(255.543687, 216.6856)"><g><path d="M 2.59375 0 L -1.609375 0 L 7.203125 -10.65625 L 3.875 -20.71875 L 8.21875 -20.71875 L 10.65625 -13.296875 L 11.015625 -13.296875 L 17.234375 -20.71875 L 21.375 -20.71875 L 13.03125 -10.65625 L 16.5 0 L 12.15625 0 L 9.546875 -8 L 9.203125 -8 Z M 2.59375 0 "/></g></g></g><path stroke-linecap="butt" transform="matrix(0.75, 0.000000000000000256, -0.000000000000000256, 0.75, 37.500002, 209.420437)" fill="none" stroke-linejoin="miter" d="M -0.00000271667 6.001918 L 166.786467 6.001918 " stroke="#f40808" stroke-width="12" stroke-opacity="1" stroke-miterlimit="4"/><path stroke-linecap="butt" transform="matrix(0.75, 0, 0, 0.75, 263.10945, 117.319797)" fill="none" stroke-linejoin="miter" d="M -0.000100563 6.000688 L 106.036365 6.000688 " stroke="#f40808" stroke-width="12" stroke-opacity="1" stroke-miterlimit="4"/><path stroke-linecap="butt" transform="matrix(0.75, 0, 0, 0.75, 49.58127, 117.319797)" fill="none" stroke-linejoin="miter" d="M 0.00101494 6.000688 L 106.03748 6.000688 " stroke="#f40808" stroke-width="12" stroke-opacity="1" stroke-miterlimit="4"/></svg>